<?xml version="1.0" encoding="UTF-8"?>
<!-- Generator: Adobe Illustrator 19.1.0, SVG Export Plug-In . SVG Version: 6.00 Build 0)  -->
<svg version="1.1" id="Layer_1" xmlns="http://www.w3.org/2000/svg" xmlns:xlink="http://www.w3.org/1999/xlink" x="0px" y="0px" viewBox="0 0 598.9 200" style="enable-background:new 0 0 598.9 200;" xml:space="preserve">
<style type="text/css">
	.st0{fill:#66584C;}
</style>
<g>
	<path class="st0" d="M598.9,60.8c-40,12.2-69.9,12.7-89.3,29c2.1-25.3-14.9-50-28.3-89.7l0,0l0,0c-13.3,39.8-30.3,64.4-28.3,89.7   c-19.3-16.3-49.3-16.7-89.3-29l0,0l0,0c34.6,47.7,40.8,83.8,90.6,82.8c3.6,8.2,11,14.5,19.9,16.7l7.1,39.7l7.1-39.7   c8.9-2.2,16.3-8.4,19.9-16.7C558.1,144.7,564.2,108.4,598.9,60.8L598.9,60.8L598.9,60.8z M447.1,120.1c-4.6,6.4-13.4,7.9-19.9,3.3   c-6.4-4.6-7.9-13.4-3.3-19.9c4.6-6.5,13.4-7.9,19.9-3.3C450.2,104.8,451.7,113.7,447.1,120.1z M481.4,102.2   c-7.9,0-14.2-6.4-14.2-14.2c0-7.9,6.4-14.2,14.2-14.2s14.2,6.4,14.2,14.2C495.7,95.9,489.3,102.2,481.4,102.2z M535.5,123.4   c-6.4,4.6-15.3,3.1-19.9-3.3c-4.6-6.4-3.1-15.3,3.3-19.9c6.4-4.6,15.3-3.1,19.9,3.3C543.4,110,541.9,118.9,535.5,123.4z"/>
	<g>
		<path class="st0" d="M308.8,57.1c-9.7,4.3-16.3,7.1-19.8,8.4l-1.7,4.1c10.3-3.8,16.8-6.4,19.3-7.9    C307.5,59.9,308.3,58.3,308.8,57.1z"/>
		<path class="st0" d="M298.7,78.1c3.5,2.5,6.2,4.9,8,7c2.4-2.1,4.3-4.5,5.7-7.3c3.2,3.8,5.1,7.2,5.5,10.3    c-2.8,1.7-8.4,2.5-17.3,2.5h-6.2v14.4h5.6c3.5,0,7.1-0.6,10.8-1.9c3.8-1.3,6.5-2.7,8.1-4.2c0.8-1,2.1-3.6,4-7.5    c1.9-3.9,2.9-7.3,3.2-9.9c0.3-2.6-0.6-5.9-2.8-9.9c-2.2-3.9-3.9-6.9-5.2-8.9c-3.2,6.1-5.2,10.6-6,13.5c-1.7-2.5-4.3-4.8-7.8-6.8    C301.9,72.1,300,74.9,298.7,78.1z"/>
		<path class="st0" d="M172.6,117.7c-7,4.9-12.8,7.4-17.2,7.4c-1.7,0-4.2-0.2-7.5-0.7c-3.3-0.5-5.8-0.7-7.3-0.7    c-0.9,0-1.6,0.2-2,0.8c0.2,1.7,4.2,4,12.1,6.7c7.3,2.5,12.2,3.8,14.7,3.8c4.6,0,9.1-2.4,13.5-7.1c7.8-8.3,11.7-20.2,11.7-35.8    c0-2.5-1.3-6.2-3.9-11c-2.1-3.9-4.3-7.2-6.6-9.9c-2.5,5.8-4.4,10.9-5.6,15.1c6.8,9.6,10.3,15.5,10.6,17.7    C183.7,108.2,179.6,112.7,172.6,117.7z"/>
		<path class="st0" d="M249.1,144.4c10.3-3.8,16.8-6.4,19.3-7.9c1-1.9,1.8-3.4,2.3-4.6c-9.7,4.3-16.3,7.1-19.8,8.4L249.1,144.4z"/>
		<path class="st0" d="M298.7,78c-2.2-2.5-5.3-4.8-9.3-6.9c-2.1,2.6-3.6,5.4-4.6,8.7c3.1,2,5.9,4.1,8.5,6.5    C295.9,83.5,297.7,80.7,298.7,78z"/>
		<path class="st0" d="M248.2,135.4c6.7-0.1,12.5-1.8,17.7-5.2c5.1-3.4,8.8-7.3,11-12c1.3-2.4,1.9-6.9,1.9-13.3    c0.9,0.2,2.7,0.3,5.1,0.3h6.4V90.8h-5.1c-2.8,0-5.1-1.6-7.1-4s-3.5-4.4-4.6-5.8l-5.2,12.9c2.4,3.1,4,5.8,5,8.1s1.4,5,1.4,8.1    c-1.3,2.4-4.5,4.9-9.8,7.3c-5.3,2.4-10.2,3.6-14.7,3.6s-8.3-1.3-11.4-3.7c-3.2-2.4-4.7-6-4.6-10.7c0.1-1.4,0.6-3.6,1.7-6.6    c1-2.9,1.5-4.7,1.4-5.4c-0.1-0.6-0.3-0.9-0.8-0.9c-0.5,0.1-1.7,2.1-3.8,5.9c-2.1,3.9-3.3,8.7-3.8,14.3c-0.5,5.6,0.9,10.7,4.3,15.1    C236.5,133.3,241.5,135.5,248.2,135.4z"/>
		<path class="st0" d="M259.7,111.9c-1.7-2.4-4.4-4.6-8.2-6.5c-2,1.7-3.9,4.4-5.7,8.1c2.6,1.5,5.4,3.6,8.3,6.2    C256.9,117.3,258.7,114.7,259.7,111.9z"/>
		<path class="st0" d="M120,115.4c2.1,1.3,4.1,2.1,6.1,2.1c8.5,0,15-2.1,19.5-6.3c1.3,1.5,3.8,2.9,7.4,4.3c3.5,1.3,6.2,2.1,8.4,2.1    c2.6,0,5.3-2.8,8-8.2c2.4-4.8,3.6-8.8,3.6-12c0-0.3-0.6-4.4-1.7-12.4c-4.3,5.8-7,9.8-8.2,12.1c1.1,4.2,1.7,6.7,1.7,7.6    c-1.8,0-4.4-0.6-8-1.6c-4-1.3-6-2.4-6-3.6c0,0,0.4-1,1.1-3c0.8-2,1.1-3.5,1.1-4.7c0-0.7-0.3-1.3-0.9-1.7c-0.7,0.1-2.1,1.5-3.9,4.3    c-2.2,3.4-3.6,5.3-3.9,5.7c-2.5,2.4-7.4,3.6-14.6,3.6c-1.3,0-2.1-0.4-2.1-1.1c0-0.2,0.6-1.5,1.7-3.8c1.1-2.2,1.7-3.9,1.7-5.1    c0-0.6-0.2-0.9-0.7-1.1c-2.4,0.9-4.3,2.4-5.4,4.9c-1.3,2.5-3,4.3-4.7,5.2c-2.1,1-5.2,1.7-9.3,2.1l-8.7,0.6v14.4    c2.9,0,5.8-0.2,8.7-0.9C114.3,118.2,117.4,117,120,115.4z"/>
		<path class="st0" d="M11.8,116.4c5.8,2.7,13,4,21.5,4c6.9,0,14.5-0.8,22.9-2.4c10.1-1.9,17.2-4.3,21.3-7.3    c2.1,5.8,7.8,8.8,17.2,8.8h3.2v-14.4c-0.6,0-1.2,0-1.8,0.1c-8.1-0.2-12.1-1.4-12.1-3.9c0-1.3,0.4-3.2,1.2-5.8    c0.8-2.7,1.2-4.7,1.2-6c0-0.9-0.2-1.4-0.6-1.7c-0.6,0-1.6,1-2.7,3.1c-0.2,0.4-0.9,1.7-2,3.9c-0.6,1.3-1.8,2.5-3.6,3.6    c-0.9,0.6-2.4,1.3-4.6,2.2c-5.8,2.5-13,4.2-21.6,5c2.3-2.2,3.9-4.7,5.1-7.3c-1.7-2.9-4.4-5.5-8.3-7.7c-2.6,2.4-4.5,5.2-5.8,8.3    c3.5,2.8,6.1,5,7.7,6.7c-3.8,0.3-7.9,0.6-12.2,0.6c2.1-2.4,3.6-4.9,4.4-7.4c-2.1-2.5-5.2-4.8-9.4-6.9c-2,2.5-3.6,5.5-4.7,8.9    c2.8,1.7,5.2,3.5,7.4,5.4c-6.8-0.1-12.6-0.9-17.7-2.4c-8-2.4-11.9-6.5-11.9-11.9c0-1.3,0.4-3.2,1.1-5.5c0.8-2.4,1.1-4.3,1.1-5.5    c0-0.6-0.2-0.9-0.6-1.2c-1.7,0.1-3.6,3.1-5.3,8.8c-1.6,5.1-2.4,8.9-2.4,11.5C0,107.3,3.9,112.9,11.8,116.4z"/>
		<path class="st0" d="M201.3,117.1c7.6,0,13.6-1.7,18.1-5.2c4.9-3.9,7.3-9.5,7.3-16.9c0-4.9-2.4-10.4-7.1-16.6    c-4.7-6.1-9.5-9.5-14.3-10.3c-1.3,0.9-2.7,2.8-3.9,5.7c-1.3,2.8-2,5.1-2,6.7c14,5.9,21,11.8,21,17.8c-1.3,1.3-3.7,2.4-7.1,3.2    c-2.9,0.8-5.5,1.1-7.9,1.1c-3.9,0-6.5-0.4-7.5-1.3c-0.9-1-1.9-2.1-2.9-3.2l-0.6,0.6c-1,4.2-1.6,7-1.6,8.4    C192.8,113.9,195.7,117.1,201.3,117.1z"/>
		<path class="st0" d="M200.9,67.2l3.1,0.3l-0.4-3.8l-1.5-0.2c0.2-1.5-0.2-3.1-0.8-4.9c-0.7-2.1-1.7-3.2-3.1-3.2    c-1.3,0-2.4,0.9-3.6,2.8c-1,1.7-1.6,3.2-1.6,4.6c0,2.3,1.8,3.7,5.4,4.3c-0.6,2.9-3.9,6.8-9.7,11.4c2.4-0.6,4.8-2.1,7.2-4.4    C198.2,71.9,199.8,69.6,200.9,67.2z M195,60.9c0-0.4,0.2-0.7,0.6-1.1c0.5-0.4,0.9-0.6,1.3-0.6c0.8,0,1.5,0.5,2.1,1.3    c0.6,0.9,0.9,1.7,0.9,2.5C196.6,63.1,195,62.3,195,60.9z"/>
		<path class="st0" d="M165.4,79.2c2.4-0.6,4.8-2.1,7.2-4.4c2.2-2.1,3.8-4.4,4.9-6.9l3.1,0.3l-0.4-3.8l-1.5-0.2    c0.2-1.5-0.2-3.1-0.8-4.9c-0.7-2.1-1.7-3.2-3.1-3.2c-1.3,0-2.4,0.9-3.6,2.8c-1,1.7-1.6,3.2-1.6,4.6c0,2.3,1.8,3.7,5.4,4.3    C174.4,70.7,171.2,74.5,165.4,79.2z M171.6,61.6c0-0.4,0.2-0.7,0.6-1.1c0.5-0.4,0.9-0.6,1.3-0.6c0.8,0,1.5,0.5,2.1,1.3    c0.6,0.9,0.9,1.7,0.9,2.5C173.2,63.9,171.6,63.1,171.6,61.6z"/>
	</g>
	<g>
		<rect y="44.6" class="st0" width="326.1" height="4.3"/>
		<rect y="150.8" class="st0" width="326.1" height="4.3"/>
	</g>
</g>
</svg>